<?xml version="1.0" encoding="UTF-8"?>
<svg xmlns="http://www.w3.org/2000/svg" viewBox="0 0 96 96" role="img" aria-label="Ayurveda symbol" fill="none">
  <!-- Harmony ring -->
  <circle cx="48" cy="48" r="43" stroke="#ffffff" stroke-width="3.5" opacity="0.3" />

  <!-- Mortar (bowl) -->
  <path d="M22 56h52c0 12-12 22-26 22S22 68 22 56z" fill="#ffffff" fill-opacity="0.15" stroke="#ffffff" stroke-width="3.5" stroke-linejoin="round"/>
  <!-- Mortar base -->
  <rect x="40" y="74" width="16" height="4" rx="2" fill="#ffffff" opacity="0.9"/>

  <!-- Pestle -->
  <path d="M66 36l10-10" stroke="#ffffff" stroke-width="4" stroke-linecap="round"/>
  <path d="M62 40l14-14" stroke="#ffffff" stroke-width="2.5" stroke-linecap="round" opacity="0.8"/>

  <!-- Leaves (Ayurveda/plants) -->
  <g stroke="#ffffff" stroke-width="3" stroke-linecap="round" stroke-linejoin="round">
    <!-- Left leaf -->
    <path d="M34 38c-6 8-6 14 2 18c6-4 8-10 4-16c-2-2-4-3-6-2z" fill="#ffffff" fill-opacity="0.18"/>
    <!-- Right leaf -->
    <path d="M54 34c8 4 10 10 6 16c-6 2-12 0-14-6c-1-4 2-8 8-10z" fill="#ffffff" fill-opacity="0.18"/>
    <!-- Mid sprout -->
    <path d="M46 42c0 6 4 10 8 10" opacity="0.9"/>
  </g>

  <!-- Subtle sparkles for vitality -->
  <g fill="#ffffff" opacity="0.75">
    <circle cx="20" cy="34" r="1.5"/>
    <circle cx="76" cy="30" r="1.5"/>
    <circle cx="84" cy="50" r="1.2"/>
    <circle cx="16" cy="60" r="1.2"/>
  </g>
</svg>
